<mxfile host="app.diagrams.net" agent="Mozilla/5.0 (Windows NT 10.0; Win64; x64) AppleWebKit/537.36 (KHTML, like Gecko) Chrome/131.0.0.0 Safari/537.36" version="25.0.3">
  <diagram id="C5RBs43oDa-KdzZeNtuy" name="Page-1">
    <mxGraphModel dx="1120" dy="426" grid="1" gridSize="10" guides="1" tooltips="1" connect="1" arrows="1" fold="1" page="1" pageScale="1" pageWidth="827" pageHeight="1169" math="0" shadow="0">
      <root>
        <mxCell id="WIyWlLk6GJQsqaUBKTNV-0" />
        <mxCell id="WIyWlLk6GJQsqaUBKTNV-1" parent="WIyWlLk6GJQsqaUBKTNV-0" />
        <mxCell id="uQ8tZhGBgIx4CucK1fat-1" value="&amp;lt;&amp;lt;system&amp;gt;&amp;gt; TrangChuScreen" style="swimlane;fontStyle=1;align=center;verticalAlign=top;childLayout=stackLayout;horizontal=1;startSize=26;horizontalStack=0;resizeParent=1;resizeParentMax=0;resizeLast=0;collapsible=1;marginBottom=0;whiteSpace=wrap;html=1;" vertex="1" parent="WIyWlLk6GJQsqaUBKTNV-1">
          <mxGeometry x="10" y="20" width="210" height="120" as="geometry" />
        </mxCell>
        <mxCell id="uQ8tZhGBgIx4CucK1fat-3" value="" style="line;strokeWidth=1;fillColor=none;align=left;verticalAlign=middle;spacingTop=-1;spacingLeft=3;spacingRight=3;rotatable=0;labelPosition=right;points=[];portConstraint=eastwest;strokeColor=inherit;" vertex="1" parent="uQ8tZhGBgIx4CucK1fat-1">
          <mxGeometry y="26" width="210" height="8" as="geometry" />
        </mxCell>
        <mxCell id="uQ8tZhGBgIx4CucK1fat-4" value="QuanLyDonHang()&lt;div&gt;QuanLySanPham()&lt;/div&gt;&lt;div&gt;QuanLyDanhMuc()&lt;/div&gt;&lt;div&gt;QuanLyShowRoom()&lt;/div&gt;&lt;div&gt;&amp;lt;&amp;lt;system&amp;gt;&amp;gt; Navigate()&lt;/div&gt;" style="text;strokeColor=none;fillColor=none;align=left;verticalAlign=top;spacingLeft=4;spacingRight=4;overflow=hidden;rotatable=0;points=[[0,0.5],[1,0.5]];portConstraint=eastwest;whiteSpace=wrap;html=1;" vertex="1" parent="uQ8tZhGBgIx4CucK1fat-1">
          <mxGeometry y="34" width="210" height="86" as="geometry" />
        </mxCell>
        <mxCell id="uQ8tZhGBgIx4CucK1fat-5" value="&amp;lt;&amp;lt;system&amp;gt;&amp;gt; QuanLyDonHangScreen" style="swimlane;fontStyle=1;align=center;verticalAlign=top;childLayout=stackLayout;horizontal=1;startSize=26;horizontalStack=0;resizeParent=1;resizeParentMax=0;resizeLast=0;collapsible=1;marginBottom=0;whiteSpace=wrap;html=1;" vertex="1" parent="WIyWlLk6GJQsqaUBKTNV-1">
          <mxGeometry x="387" y="10" width="230" height="150" as="geometry" />
        </mxCell>
        <mxCell id="uQ8tZhGBgIx4CucK1fat-6" value="id&lt;div&gt;orderDate&lt;/div&gt;&lt;div&gt;products&lt;/div&gt;&lt;div&gt;totalPrice&lt;/div&gt;&lt;div&gt;status&lt;/div&gt;&lt;div&gt;&lt;br&gt;&lt;/div&gt;" style="text;strokeColor=none;fillColor=none;align=left;verticalAlign=top;spacingLeft=4;spacingRight=4;overflow=hidden;rotatable=0;points=[[0,0.5],[1,0.5]];portConstraint=eastwest;whiteSpace=wrap;html=1;" vertex="1" parent="uQ8tZhGBgIx4CucK1fat-5">
          <mxGeometry y="26" width="230" height="64" as="geometry" />
        </mxCell>
        <mxCell id="uQ8tZhGBgIx4CucK1fat-7" value="" style="line;strokeWidth=1;fillColor=none;align=left;verticalAlign=middle;spacingTop=-1;spacingLeft=3;spacingRight=3;rotatable=0;labelPosition=right;points=[];portConstraint=eastwest;strokeColor=inherit;" vertex="1" parent="uQ8tZhGBgIx4CucK1fat-5">
          <mxGeometry y="90" width="230" height="8" as="geometry" />
        </mxCell>
        <mxCell id="uQ8tZhGBgIx4CucK1fat-8" value="&lt;div&gt;xemchitiet()&lt;/div&gt;&lt;div&gt;&amp;lt;&amp;lt;system&amp;gt;&amp;gt;Navigate()&lt;/div&gt;&lt;div&gt;&lt;br&gt;&lt;/div&gt;" style="text;strokeColor=none;fillColor=none;align=left;verticalAlign=top;spacingLeft=4;spacingRight=4;overflow=hidden;rotatable=0;points=[[0,0.5],[1,0.5]];portConstraint=eastwest;whiteSpace=wrap;html=1;" vertex="1" parent="uQ8tZhGBgIx4CucK1fat-5">
          <mxGeometry y="98" width="230" height="52" as="geometry" />
        </mxCell>
        <mxCell id="uQ8tZhGBgIx4CucK1fat-25" style="edgeStyle=orthogonalEdgeStyle;rounded=0;orthogonalLoop=1;jettySize=auto;html=1;entryX=0.25;entryY=0;entryDx=0;entryDy=0;" edge="1" parent="WIyWlLk6GJQsqaUBKTNV-1" source="uQ8tZhGBgIx4CucK1fat-9" target="uQ8tZhGBgIx4CucK1fat-13">
          <mxGeometry relative="1" as="geometry" />
        </mxCell>
        <mxCell id="uQ8tZhGBgIx4CucK1fat-26" value="CapNhatTrangThaiDonHang" style="edgeLabel;html=1;align=center;verticalAlign=middle;resizable=0;points=[];" vertex="1" connectable="0" parent="uQ8tZhGBgIx4CucK1fat-25">
          <mxGeometry x="0.0074" y="-1" relative="1" as="geometry">
            <mxPoint as="offset" />
          </mxGeometry>
        </mxCell>
        <mxCell id="uQ8tZhGBgIx4CucK1fat-9" value="&amp;lt;&amp;lt;system&amp;gt;&amp;gt; ChiTietDonHangScreen" style="swimlane;fontStyle=1;align=center;verticalAlign=top;childLayout=stackLayout;horizontal=1;startSize=26;horizontalStack=0;resizeParent=1;resizeParentMax=0;resizeLast=0;collapsible=1;marginBottom=0;whiteSpace=wrap;html=1;" vertex="1" parent="WIyWlLk6GJQsqaUBKTNV-1">
          <mxGeometry x="10" y="220" width="240" height="210" as="geometry" />
        </mxCell>
        <mxCell id="uQ8tZhGBgIx4CucK1fat-10" value="name(báº£ng User)&lt;div&gt;name(bang Product)&lt;/div&gt;&lt;div&gt;count&lt;/div&gt;&lt;div&gt;price&lt;/div&gt;&lt;div&gt;totalPrice&lt;/div&gt;&lt;div&gt;phone&amp;nbsp;&lt;/div&gt;&lt;div&gt;address&lt;/div&gt;&lt;div&gt;status&lt;/div&gt;" style="text;strokeColor=none;fillColor=none;align=left;verticalAlign=top;spacingLeft=4;spacingRight=4;overflow=hidden;rotatable=0;points=[[0,0.5],[1,0.5]];portConstraint=eastwest;whiteSpace=wrap;html=1;" vertex="1" parent="uQ8tZhGBgIx4CucK1fat-9">
          <mxGeometry y="26" width="240" height="124" as="geometry" />
        </mxCell>
        <mxCell id="uQ8tZhGBgIx4CucK1fat-11" value="" style="line;strokeWidth=1;fillColor=none;align=left;verticalAlign=middle;spacingTop=-1;spacingLeft=3;spacingRight=3;rotatable=0;labelPosition=right;points=[];portConstraint=eastwest;strokeColor=inherit;" vertex="1" parent="uQ8tZhGBgIx4CucK1fat-9">
          <mxGeometry y="150" width="240" height="8" as="geometry" />
        </mxCell>
        <mxCell id="uQ8tZhGBgIx4CucK1fat-12" value="capnhattrangthaidonhang()&lt;div&gt;xoadonhang()&lt;/div&gt;&lt;div&gt;&amp;lt;&amp;lt;system&amp;gt;&amp;gt; Navigate()&lt;/div&gt;" style="text;strokeColor=none;fillColor=none;align=left;verticalAlign=top;spacingLeft=4;spacingRight=4;overflow=hidden;rotatable=0;points=[[0,0.5],[1,0.5]];portConstraint=eastwest;whiteSpace=wrap;html=1;" vertex="1" parent="uQ8tZhGBgIx4CucK1fat-9">
          <mxGeometry y="158" width="240" height="52" as="geometry" />
        </mxCell>
        <mxCell id="uQ8tZhGBgIx4CucK1fat-13" value="&amp;lt;&amp;lt;system&amp;gt;&amp;gt; CapNhatTrangThaiDonHangScreen" style="swimlane;fontStyle=1;align=center;verticalAlign=top;childLayout=stackLayout;horizontal=1;startSize=26;horizontalStack=0;resizeParent=1;resizeParentMax=0;resizeLast=0;collapsible=1;marginBottom=0;whiteSpace=wrap;html=1;" vertex="1" parent="WIyWlLk6GJQsqaUBKTNV-1">
          <mxGeometry x="50" y="560" width="300" height="98" as="geometry" />
        </mxCell>
        <mxCell id="uQ8tZhGBgIx4CucK1fat-14" value="&lt;div&gt;&lt;br&gt;&lt;/div&gt;&lt;div&gt;&lt;br&gt;&lt;/div&gt;" style="text;strokeColor=none;fillColor=none;align=left;verticalAlign=top;spacingLeft=4;spacingRight=4;overflow=hidden;rotatable=0;points=[[0,0.5],[1,0.5]];portConstraint=eastwest;whiteSpace=wrap;html=1;" vertex="1" parent="uQ8tZhGBgIx4CucK1fat-13">
          <mxGeometry y="26" width="300" height="4" as="geometry" />
        </mxCell>
        <mxCell id="uQ8tZhGBgIx4CucK1fat-15" value="" style="line;strokeWidth=1;fillColor=none;align=left;verticalAlign=middle;spacingTop=-1;spacingLeft=3;spacingRight=3;rotatable=0;labelPosition=right;points=[];portConstraint=eastwest;strokeColor=inherit;" vertex="1" parent="uQ8tZhGBgIx4CucK1fat-13">
          <mxGeometry y="30" width="300" height="8" as="geometry" />
        </mxCell>
        <mxCell id="uQ8tZhGBgIx4CucK1fat-16" value="Huybo()&lt;div&gt;Capnhat()&lt;/div&gt;&lt;div&gt;&amp;lt;&amp;lt;system&amp;gt;&amp;gt; Navigate()&lt;/div&gt;" style="text;strokeColor=none;fillColor=none;align=left;verticalAlign=top;spacingLeft=4;spacingRight=4;overflow=hidden;rotatable=0;points=[[0,0.5],[1,0.5]];portConstraint=eastwest;whiteSpace=wrap;html=1;" vertex="1" parent="uQ8tZhGBgIx4CucK1fat-13">
          <mxGeometry y="38" width="300" height="60" as="geometry" />
        </mxCell>
        <mxCell id="uQ8tZhGBgIx4CucK1fat-17" value="&amp;lt;&amp;lt;system&amp;gt;&amp;gt; XoaDonHangScreen" style="swimlane;fontStyle=1;align=center;verticalAlign=top;childLayout=stackLayout;horizontal=1;startSize=26;horizontalStack=0;resizeParent=1;resizeParentMax=0;resizeLast=0;collapsible=1;marginBottom=0;whiteSpace=wrap;html=1;" vertex="1" parent="WIyWlLk6GJQsqaUBKTNV-1">
          <mxGeometry x="500" y="290" width="210" height="90" as="geometry" />
        </mxCell>
        <mxCell id="uQ8tZhGBgIx4CucK1fat-19" value="" style="line;strokeWidth=1;fillColor=none;align=left;verticalAlign=middle;spacingTop=-1;spacingLeft=3;spacingRight=3;rotatable=0;labelPosition=right;points=[];portConstraint=eastwest;strokeColor=inherit;" vertex="1" parent="uQ8tZhGBgIx4CucK1fat-17">
          <mxGeometry y="26" width="210" height="8" as="geometry" />
        </mxCell>
        <mxCell id="uQ8tZhGBgIx4CucK1fat-20" value="Khongdongy()&lt;div&gt;Xoadonhang()&lt;/div&gt;&lt;div&gt;&amp;lt;&amp;lt;system&amp;gt;&amp;gt; Navigate()&lt;/div&gt;" style="text;strokeColor=none;fillColor=none;align=left;verticalAlign=top;spacingLeft=4;spacingRight=4;overflow=hidden;rotatable=0;points=[[0,0.5],[1,0.5]];portConstraint=eastwest;whiteSpace=wrap;html=1;" vertex="1" parent="uQ8tZhGBgIx4CucK1fat-17">
          <mxGeometry y="34" width="210" height="56" as="geometry" />
        </mxCell>
        <mxCell id="uQ8tZhGBgIx4CucK1fat-21" style="edgeStyle=orthogonalEdgeStyle;rounded=0;orthogonalLoop=1;jettySize=auto;html=1;entryX=0;entryY=0.672;entryDx=0;entryDy=0;entryPerimeter=0;" edge="1" parent="WIyWlLk6GJQsqaUBKTNV-1" source="uQ8tZhGBgIx4CucK1fat-1" target="uQ8tZhGBgIx4CucK1fat-6">
          <mxGeometry relative="1" as="geometry" />
        </mxCell>
        <mxCell id="uQ8tZhGBgIx4CucK1fat-22" value="QuanLyDonhang&lt;div&gt;&lt;br&gt;&lt;/div&gt;" style="edgeLabel;html=1;align=center;verticalAlign=middle;resizable=0;points=[];" vertex="1" connectable="0" parent="uQ8tZhGBgIx4CucK1fat-21">
          <mxGeometry x="-0.0864" y="-2" relative="1" as="geometry">
            <mxPoint as="offset" />
          </mxGeometry>
        </mxCell>
        <mxCell id="uQ8tZhGBgIx4CucK1fat-23" style="edgeStyle=orthogonalEdgeStyle;rounded=0;orthogonalLoop=1;jettySize=auto;html=1;entryX=1.013;entryY=0.145;entryDx=0;entryDy=0;entryPerimeter=0;" edge="1" parent="WIyWlLk6GJQsqaUBKTNV-1" source="uQ8tZhGBgIx4CucK1fat-8" target="uQ8tZhGBgIx4CucK1fat-10">
          <mxGeometry relative="1" as="geometry" />
        </mxCell>
        <mxCell id="uQ8tZhGBgIx4CucK1fat-24" value="XemChiTiet" style="edgeLabel;html=1;align=center;verticalAlign=middle;resizable=0;points=[];" vertex="1" connectable="0" parent="uQ8tZhGBgIx4CucK1fat-23">
          <mxGeometry x="-0.0109" y="3" relative="1" as="geometry">
            <mxPoint as="offset" />
          </mxGeometry>
        </mxCell>
        <mxCell id="uQ8tZhGBgIx4CucK1fat-28" style="edgeStyle=orthogonalEdgeStyle;rounded=0;orthogonalLoop=1;jettySize=auto;html=1;entryX=0;entryY=0.25;entryDx=0;entryDy=0;" edge="1" parent="WIyWlLk6GJQsqaUBKTNV-1" source="uQ8tZhGBgIx4CucK1fat-10" target="uQ8tZhGBgIx4CucK1fat-17">
          <mxGeometry relative="1" as="geometry" />
        </mxCell>
        <mxCell id="uQ8tZhGBgIx4CucK1fat-29" value="XoaDonHang" style="edgeLabel;html=1;align=center;verticalAlign=middle;resizable=0;points=[];" vertex="1" connectable="0" parent="uQ8tZhGBgIx4CucK1fat-28">
          <mxGeometry x="-0.0491" relative="1" as="geometry">
            <mxPoint as="offset" />
          </mxGeometry>
        </mxCell>
      </root>
    </mxGraphModel>
  </diagram>
</mxfile>
